<svg id="Layer_1" data-name="Layer 1" xmlns="http://www.w3.org/2000/svg" viewBox="0 0 95 13.6"><defs><style>.cls-1{isolation:isolate;}.cls-2{fill:#326295;}</style></defs><title>logo-extranet</title><g id="Icons_-graphics" data-name="Icons,-graphics"><g id="Logo-external"><g id="EXTRANET" class="cls-1"><g class="cls-1"><path class="cls-2" d="M11.5,22H3.7V8.4h7.8v2.4H6.6v3h4.6v2.4H6.6v3.5h4.9V22Z" transform="translate(-3.7 -8.4)"/><path class="cls-2" d="M25.3,22H22l-3.2-5.1L15.7,22H12.6l4.5-7L12.9,8.4h3.2L19,13.3l2.9-4.9H25l-4.3,6.7Z" transform="translate(-3.7 -8.4)"/><path class="cls-2" d="M32.3,22H29.4V10.8H25.7V8.4H35.9v2.4H32.3V22Z" transform="translate(-3.7 -8.4)"/><path class="cls-2" d="M40.9,16.8V22H38V8.4h4a6.8,6.8,0,0,1,4.1,1,3.6,3.6,0,0,1,1.3,3.1,3.6,3.6,0,0,1-.7,2.1,4.4,4.4,0,0,1-1.9,1.5l4,5.9H45.7l-3.2-5.2H40.9Zm0-2.3h0.9a3.6,3.6,0,0,0,2-.5,1.6,1.6,0,0,0,.6-1.4,1.5,1.5,0,0,0-.7-1.4,4,4,0,0,0-2.1-.4H40.9v3.7Z" transform="translate(-3.7 -8.4)"/><path class="cls-2" d="M58.9,22l-1-3.2H52.9L52,22H48.9L53.6,8.4h3.5L62,22H58.9Zm-1.7-5.6-1.5-5-0.2-.9q-0.3,1.2-1.8,5.9h3.5Z" transform="translate(-3.7 -8.4)"/><path class="cls-2" d="M75.7,22H72.1L66.2,11.7H66.1q0.2,2.7.2,3.9V22H63.7V8.4h3.6l5.9,10.2h0.1q-0.1-2.6-.1-3.7V8.4h2.6V22Z" transform="translate(-3.7 -8.4)"/><path class="cls-2" d="M86.9,22H79.1V8.4h7.8v2.4H82v3h4.6v2.4H82v3.5h4.9V22Z" transform="translate(-3.7 -8.4)"/><path class="cls-2" d="M95,22H92.1V10.8H88.4V8.4H98.7v2.4H95V22Z" transform="translate(-3.7 -8.4)"/></g></g></g></g></svg>